<svg xmlns="http://www.w3.org/2000/svg" xmlns:xlink="http://www.w3.org/1999/xlink" width="250" zoomAndPan="magnify" viewBox="0 0 187.5 112.499997" height="150" preserveAspectRatio="xMidYMid meet" version="1.2"><defs><clipPath id="4192dcec93"><path d="M 10.175781 30.742188 L 89 30.742188 L 89 87.488281 L 10.175781 87.488281 Z M 10.175781 30.742188 "/></clipPath></defs><g id="b3caf88226"><g clip-rule="nonzero" clip-path="url(#4192dcec93)"><path style=" stroke:none;fill-rule:nonzero;fill:#4f46e5;fill-opacity:1;" d="M 31.851562 66.464844 C 32.691406 67.574219 33.457031 68.609375 34.234375 69.625 C 36.617188 72.789062 39 75.933594 41.371094 79.097656 C 41.6875 79.511719 41.988281 79.734375 42.546875 79.734375 C 51.699219 79.714844 60.851562 79.765625 70.003906 79.699219 C 73.40625 79.667969 76.457031 78.539062 78.410156 75.539062 C 81.8125 70.324219 78.0625 62.410156 71.480469 62.238281 C 66.890625 62.109375 62.296875 62.15625 57.703125 62.125 C 57.292969 62.125 56.863281 62.125 56.386719 62.125 C 56.386719 59.535156 56.386719 57.054688 56.386719 54.449219 C 56.832031 54.449219 57.261719 54.449219 57.671875 54.449219 C 61.472656 54.417969 65.285156 54.480469 69.082031 54.324219 C 72.578125 54.179688 75.152344 52.320312 75.949219 49.382812 C 76.789062 46.265625 76.679688 43.246094 74.167969 40.800781 C 72.640625 39.324219 70.671875 38.75 68.621094 38.671875 C 65.523438 38.542969 62.410156 38.558594 59.292969 38.542969 C 56.511719 38.527344 53.730469 38.527344 50.953125 38.542969 C 50.347656 38.542969 50.125 38.386719 49.917969 37.75 C 49.042969 35.109375 47.375 33.0625 45.054688 31.519531 C 44.832031 31.375 44.609375 31.234375 44.132812 30.933594 C 44.660156 30.898438 44.929688 30.851562 45.199219 30.851562 C 52.667969 30.851562 60.121094 30.820312 67.589844 30.867188 C 70.816406 30.882812 73.960938 31.425781 76.867188 32.917969 C 81.335938 35.191406 83.734375 38.957031 84.496094 43.804688 C 85.003906 46.964844 84.878906 50.113281 83.210938 52.941406 C 82.304688 54.480469 81.046875 55.816406 79.921875 57.292969 C 80.0625 57.390625 80.332031 57.566406 80.601562 57.738281 C 86.324219 61.425781 88.867188 66.65625 87.898438 73.40625 C 86.878906 80.382812 82.589844 85.039062 75.757812 86.628906 C 73.660156 87.121094 71.464844 87.359375 69.304688 87.375 C 58.914062 87.457031 48.519531 87.40625 38.128906 87.421875 C 37.445312 87.421875 37.046875 87.21875 36.664062 86.644531 C 30.816406 78.0625 24.953125 69.46875 19.074219 60.855469 C 18.929688 60.632812 18.789062 60.394531 18.550781 60.027344 C 18.964844 60.011719 19.265625 59.980469 19.582031 59.980469 C 22.394531 59.917969 25.207031 59.980469 28.003906 59.757812 C 31.039062 59.519531 33.902344 58.613281 36.363281 56.675781 C 40.828125 53.164062 41.589844 42.769531 33.074219 39.640625 C 31.261719 38.972656 29.261719 38.605469 27.335938 38.558594 C 22 38.417969 16.644531 38.511719 11.304688 38.511719 C 10.953125 38.511719 10.589844 38.511719 10.175781 38.511719 C 10.175781 35.921875 10.175781 33.425781 10.175781 30.851562 C 10.414062 30.820312 10.667969 30.789062 10.9375 30.789062 C 17.070312 30.804688 23.207031 30.773438 29.339844 30.835938 C 31.992188 30.867188 34.632812 31.234375 37.175781 32.125 C 41.894531 33.792969 45.023438 37.066406 46.742188 41.722656 C 48.328125 46.011719 48.457031 50.398438 47.28125 54.800781 C 45.4375 61.777344 39.828125 65.160156 33.996094 66.195312 C 33.328125 66.320312 32.660156 66.367188 31.851562 66.464844 Z M 31.851562 66.464844 "/></g><g style="fill:#ffffff;fill-opacity:1;"><g transform="translate(109.700858, 56.228024)"><path style="stroke:none" d="M 7.703125 -0.578125 C 7.523438 -0.316406 7.34375 -0.128906 7.15625 -0.015625 C 6.976562 0.0976562 6.742188 0.15625 6.453125 0.15625 C 6.128906 0.15625 5.863281 0.0664062 5.65625 -0.109375 C 5.457031 -0.296875 5.304688 -0.625 5.203125 -1.09375 L 4.953125 -2.265625 C 4.859375 -2.671875 4.769531 -2.984375 4.6875 -3.203125 C 4.601562 -3.421875 4.476562 -3.59375 4.3125 -3.71875 C 4.15625 -3.851562 3.925781 -3.921875 3.625 -3.921875 L 2.515625 -3.921875 L 2.515625 -1.234375 C 2.515625 -0.941406 2.535156 -0.726562 2.578125 -0.59375 C 2.628906 -0.457031 2.71875 -0.363281 2.84375 -0.3125 C 2.976562 -0.269531 3.1875 -0.242188 3.46875 -0.234375 L 3.46875 0 C 3.101562 -0.0195312 2.609375 -0.03125 1.984375 -0.03125 C 1.316406 -0.03125 0.816406 -0.0195312 0.484375 0 L 0.484375 -0.234375 C 0.765625 -0.242188 0.96875 -0.269531 1.09375 -0.3125 C 1.226562 -0.363281 1.316406 -0.457031 1.359375 -0.59375 C 1.410156 -0.726562 1.4375 -0.941406 1.4375 -1.234375 L 1.4375 -7.03125 C 1.4375 -7.320312 1.410156 -7.53125 1.359375 -7.65625 C 1.316406 -7.789062 1.226562 -7.878906 1.09375 -7.921875 C 0.96875 -7.972656 0.765625 -8.007812 0.484375 -8.03125 L 0.484375 -8.265625 C 0.816406 -8.242188 1.296875 -8.234375 1.921875 -8.234375 L 3.171875 -8.234375 C 3.316406 -8.242188 3.484375 -8.25 3.671875 -8.25 C 4.578125 -8.25 5.269531 -8.0625 5.75 -7.6875 C 6.238281 -7.3125 6.484375 -6.820312 6.484375 -6.21875 C 6.484375 -5.914062 6.410156 -5.609375 6.265625 -5.296875 C 6.128906 -4.992188 5.890625 -4.71875 5.546875 -4.46875 C 5.210938 -4.226562 4.769531 -4.066406 4.21875 -3.984375 L 4.359375 -3.953125 C 4.878906 -3.867188 5.253906 -3.710938 5.484375 -3.484375 C 5.710938 -3.265625 5.882812 -2.910156 6 -2.421875 L 6.296875 -1.21875 C 6.367188 -0.863281 6.445312 -0.613281 6.53125 -0.46875 C 6.625 -0.332031 6.742188 -0.265625 6.890625 -0.265625 C 7.015625 -0.265625 7.125 -0.300781 7.21875 -0.375 C 7.3125 -0.445312 7.414062 -0.5625 7.53125 -0.71875 Z M 3.390625 -8.03125 C 3.140625 -8.03125 2.953125 -8 2.828125 -7.9375 C 2.710938 -7.882812 2.628906 -7.789062 2.578125 -7.65625 C 2.535156 -7.519531 2.515625 -7.3125 2.515625 -7.03125 L 2.515625 -4.15625 L 3.296875 -4.15625 C 4.066406 -4.15625 4.597656 -4.328125 4.890625 -4.671875 C 5.179688 -5.015625 5.328125 -5.488281 5.328125 -6.09375 C 5.328125 -6.726562 5.171875 -7.207031 4.859375 -7.53125 C 4.554688 -7.863281 4.066406 -8.03125 3.390625 -8.03125 Z M 3.390625 -8.03125 "/></g></g><g style="fill:#ffffff;fill-opacity:1;"><g transform="translate(118.136765, 56.228024)"><path style="stroke:none" d="M 6.625 -0.984375 C 6.800781 -0.492188 7.066406 -0.242188 7.421875 -0.234375 L 7.421875 0 C 7.109375 -0.0195312 6.691406 -0.03125 6.171875 -0.03125 C 5.503906 -0.03125 5.007812 -0.0195312 4.6875 0 L 4.6875 -0.234375 C 4.976562 -0.242188 5.1875 -0.28125 5.3125 -0.34375 C 5.445312 -0.40625 5.515625 -0.515625 5.515625 -0.671875 C 5.515625 -0.796875 5.46875 -0.976562 5.375 -1.21875 L 4.65625 -3.125 L 1.828125 -3.125 L 1.359375 -1.890625 C 1.203125 -1.472656 1.125 -1.15625 1.125 -0.9375 C 1.125 -0.695312 1.207031 -0.519531 1.375 -0.40625 C 1.539062 -0.300781 1.796875 -0.242188 2.140625 -0.234375 L 2.140625 0 C 1.691406 -0.0195312 1.242188 -0.03125 0.796875 -0.03125 C 0.441406 -0.03125 0.148438 -0.0195312 -0.078125 0 L -0.078125 -0.234375 C 0.304688 -0.328125 0.613281 -0.664062 0.84375 -1.25 L 3.578125 -8.328125 L 3.765625 -8.328125 Z M 4.5625 -3.359375 L 3.25 -6.84375 L 1.921875 -3.359375 Z M 4.5625 -3.359375 "/></g></g><g style="fill:#ffffff;fill-opacity:1;"><g transform="translate(126.362667, 56.228024)"><path style="stroke:none" d="M 6.3125 -8.265625 C 6.257812 -7.710938 6.234375 -7.210938 6.234375 -6.765625 C 6.234375 -6.378906 6.242188 -6.0625 6.265625 -5.8125 L 6 -5.8125 C 5.9375 -6.414062 5.859375 -6.863281 5.765625 -7.15625 C 5.671875 -7.445312 5.503906 -7.660156 5.265625 -7.796875 C 5.035156 -7.929688 4.679688 -8 4.203125 -8 L 3.46875 -8 C 3.1875 -8 2.976562 -7.972656 2.84375 -7.921875 C 2.71875 -7.878906 2.628906 -7.789062 2.578125 -7.65625 C 2.535156 -7.53125 2.515625 -7.320312 2.515625 -7.03125 L 2.515625 -4.15625 L 3.375 -4.15625 C 3.644531 -4.15625 3.851562 -4.21875 4 -4.34375 C 4.144531 -4.476562 4.242188 -4.628906 4.296875 -4.796875 C 4.347656 -4.972656 4.390625 -5.195312 4.421875 -5.46875 L 4.453125 -5.703125 L 4.734375 -5.703125 C 4.703125 -5.367188 4.6875 -5 4.6875 -4.59375 L 4.6875 -4.03125 C 4.6875 -3.632812 4.710938 -3.082031 4.765625 -2.375 L 4.5 -2.375 C 4.488281 -2.4375 4.460938 -2.628906 4.421875 -2.953125 C 4.378906 -3.273438 4.269531 -3.515625 4.09375 -3.671875 C 3.925781 -3.835938 3.6875 -3.921875 3.375 -3.921875 L 2.515625 -3.921875 L 2.515625 -1.234375 C 2.515625 -0.941406 2.546875 -0.726562 2.609375 -0.59375 C 2.671875 -0.457031 2.78125 -0.363281 2.9375 -0.3125 C 3.09375 -0.269531 3.347656 -0.242188 3.703125 -0.234375 L 3.703125 0 C 3.296875 -0.0195312 2.722656 -0.03125 1.984375 -0.03125 C 1.316406 -0.03125 0.816406 -0.0195312 0.484375 0 L 0.484375 -0.234375 C 0.765625 -0.242188 0.96875 -0.269531 1.09375 -0.3125 C 1.226562 -0.363281 1.316406 -0.457031 1.359375 -0.59375 C 1.410156 -0.726562 1.4375 -0.941406 1.4375 -1.234375 L 1.4375 -7.03125 C 1.4375 -7.320312 1.410156 -7.53125 1.359375 -7.65625 C 1.316406 -7.789062 1.226562 -7.878906 1.09375 -7.921875 C 0.96875 -7.972656 0.765625 -8.007812 0.484375 -8.03125 L 0.484375 -8.265625 C 1.253906 -8.242188 2.382812 -8.234375 3.875 -8.234375 C 5.019531 -8.234375 5.832031 -8.242188 6.3125 -8.265625 Z M 6.3125 -8.265625 "/></g></g><g style="fill:#ffffff;fill-opacity:1;"><g transform="translate(133.876889, 56.228024)"><path style="stroke:none" d="M 6.625 -0.984375 C 6.800781 -0.492188 7.066406 -0.242188 7.421875 -0.234375 L 7.421875 0 C 7.109375 -0.0195312 6.691406 -0.03125 6.171875 -0.03125 C 5.503906 -0.03125 5.007812 -0.0195312 4.6875 0 L 4.6875 -0.234375 C 4.976562 -0.242188 5.1875 -0.28125 5.3125 -0.34375 C 5.445312 -0.40625 5.515625 -0.515625 5.515625 -0.671875 C 5.515625 -0.796875 5.46875 -0.976562 5.375 -1.21875 L 4.65625 -3.125 L 1.828125 -3.125 L 1.359375 -1.890625 C 1.203125 -1.472656 1.125 -1.15625 1.125 -0.9375 C 1.125 -0.695312 1.207031 -0.519531 1.375 -0.40625 C 1.539062 -0.300781 1.796875 -0.242188 2.140625 -0.234375 L 2.140625 0 C 1.691406 -0.0195312 1.242188 -0.03125 0.796875 -0.03125 C 0.441406 -0.03125 0.148438 -0.0195312 -0.078125 0 L -0.078125 -0.234375 C 0.304688 -0.328125 0.613281 -0.664062 0.84375 -1.25 L 3.578125 -8.328125 L 3.765625 -8.328125 Z M 4.5625 -3.359375 L 3.25 -6.84375 L 1.921875 -3.359375 Z M 4.5625 -3.359375 "/></g></g><g style="fill:#ffffff;fill-opacity:1;"><g transform="translate(142.102792, 56.228024)"><path style="stroke:none" d="M 6.46875 -1.5 C 6.46875 -1.050781 6.492188 -0.550781 6.546875 0 C 6.015625 -0.0195312 5.125 -0.03125 3.875 -0.03125 C 2.382812 -0.03125 1.253906 -0.0195312 0.484375 0 L 0.484375 -0.234375 C 0.765625 -0.242188 0.96875 -0.269531 1.09375 -0.3125 C 1.226562 -0.363281 1.316406 -0.457031 1.359375 -0.59375 C 1.410156 -0.726562 1.4375 -0.941406 1.4375 -1.234375 L 1.4375 -7.03125 C 1.4375 -7.320312 1.410156 -7.53125 1.359375 -7.65625 C 1.316406 -7.789062 1.226562 -7.878906 1.09375 -7.921875 C 0.96875 -7.972656 0.765625 -8.007812 0.484375 -8.03125 L 0.484375 -8.265625 C 1.253906 -8.242188 2.382812 -8.234375 3.875 -8.234375 C 5.019531 -8.234375 5.832031 -8.242188 6.3125 -8.265625 C 6.257812 -7.753906 6.234375 -7.296875 6.234375 -6.890625 C 6.234375 -6.585938 6.242188 -6.34375 6.265625 -6.15625 L 6 -6.15625 C 5.945312 -6.664062 5.875 -7.039062 5.78125 -7.28125 C 5.695312 -7.53125 5.550781 -7.710938 5.34375 -7.828125 C 5.144531 -7.941406 4.84375 -8 4.4375 -8 L 3.46875 -8 C 3.1875 -8 2.976562 -7.972656 2.84375 -7.921875 C 2.71875 -7.878906 2.628906 -7.789062 2.578125 -7.65625 C 2.535156 -7.53125 2.515625 -7.320312 2.515625 -7.03125 L 2.515625 -4.265625 L 3.296875 -4.265625 C 3.566406 -4.265625 3.773438 -4.328125 3.921875 -4.453125 C 4.066406 -4.585938 4.164062 -4.742188 4.21875 -4.921875 C 4.269531 -5.097656 4.3125 -5.316406 4.34375 -5.578125 L 4.375 -5.8125 L 4.640625 -5.8125 C 4.617188 -5.488281 4.609375 -5.125 4.609375 -4.71875 L 4.609375 -4.15625 C 4.609375 -3.757812 4.632812 -3.207031 4.6875 -2.5 L 4.40625 -2.5 C 4.40625 -2.550781 4.382812 -2.738281 4.34375 -3.0625 C 4.300781 -3.382812 4.191406 -3.625 4.015625 -3.78125 C 3.847656 -3.945312 3.609375 -4.03125 3.296875 -4.03125 L 2.515625 -4.03125 L 2.515625 -1.234375 C 2.515625 -0.941406 2.535156 -0.726562 2.578125 -0.59375 C 2.628906 -0.457031 2.71875 -0.367188 2.84375 -0.328125 C 2.976562 -0.285156 3.1875 -0.265625 3.46875 -0.265625 L 4.3125 -0.265625 C 4.800781 -0.265625 5.171875 -0.328125 5.421875 -0.453125 C 5.671875 -0.585938 5.851562 -0.796875 5.96875 -1.078125 C 6.09375 -1.359375 6.179688 -1.773438 6.234375 -2.328125 L 6.5 -2.328125 C 6.476562 -2.117188 6.46875 -1.84375 6.46875 -1.5 Z M 6.46875 -1.5 "/></g></g><g style="fill:#ffffff;fill-opacity:1;"><g transform="translate(150.083689, 56.228024)"><path style="stroke:none" d="M 3.46875 -8.03125 C 3.1875 -8.007812 2.976562 -7.972656 2.84375 -7.921875 C 2.71875 -7.878906 2.628906 -7.789062 2.578125 -7.65625 C 2.535156 -7.53125 2.515625 -7.320312 2.515625 -7.03125 L 2.515625 -1.234375 C 2.515625 -0.941406 2.535156 -0.726562 2.578125 -0.59375 C 2.628906 -0.457031 2.71875 -0.367188 2.84375 -0.328125 C 2.976562 -0.285156 3.1875 -0.265625 3.46875 -0.265625 L 4.3125 -0.265625 C 4.800781 -0.265625 5.171875 -0.332031 5.421875 -0.46875 C 5.671875 -0.601562 5.851562 -0.820312 5.96875 -1.125 C 6.09375 -1.4375 6.179688 -1.878906 6.234375 -2.453125 L 6.5 -2.453125 C 6.476562 -2.210938 6.46875 -1.894531 6.46875 -1.5 C 6.46875 -1.050781 6.492188 -0.550781 6.546875 0 C 6.015625 -0.0195312 5.125 -0.03125 3.875 -0.03125 C 2.382812 -0.03125 1.253906 -0.0195312 0.484375 0 L 0.484375 -0.234375 C 0.765625 -0.242188 0.96875 -0.269531 1.09375 -0.3125 C 1.226562 -0.363281 1.316406 -0.457031 1.359375 -0.59375 C 1.410156 -0.726562 1.4375 -0.941406 1.4375 -1.234375 L 1.4375 -7.03125 C 1.4375 -7.320312 1.410156 -7.53125 1.359375 -7.65625 C 1.316406 -7.789062 1.226562 -7.878906 1.09375 -7.921875 C 0.96875 -7.972656 0.765625 -8.007812 0.484375 -8.03125 L 0.484375 -8.265625 C 0.816406 -8.242188 1.316406 -8.234375 1.984375 -8.234375 C 2.609375 -8.234375 3.101562 -8.242188 3.46875 -8.265625 Z M 3.46875 -8.03125 "/></g></g><g style="fill:#ffffff;fill-opacity:1;"><g transform="translate(92.760525, 71.908333)"><path style="stroke:none" d="M 4.359375 -4.359375 C 5.222656 -4.242188 5.835938 -4 6.203125 -3.625 C 6.566406 -3.25 6.75 -2.796875 6.75 -2.265625 C 6.75 -1.816406 6.632812 -1.421875 6.40625 -1.078125 C 6.175781 -0.742188 5.851562 -0.476562 5.4375 -0.28125 C 5.019531 -0.09375 4.519531 0 3.9375 0 C 3.726562 0 3.550781 -0.00390625 3.40625 -0.015625 C 2.90625 -0.0234375 2.414062 -0.03125 1.9375 -0.03125 C 1.300781 -0.03125 0.816406 -0.0195312 0.484375 0 L 0.484375 -0.234375 C 0.765625 -0.242188 0.96875 -0.269531 1.09375 -0.3125 C 1.226562 -0.363281 1.316406 -0.457031 1.359375 -0.59375 C 1.410156 -0.726562 1.4375 -0.941406 1.4375 -1.234375 L 1.4375 -7.03125 C 1.4375 -7.320312 1.410156 -7.53125 1.359375 -7.65625 C 1.316406 -7.789062 1.226562 -7.878906 1.09375 -7.921875 C 0.96875 -7.972656 0.765625 -8.007812 0.484375 -8.03125 L 0.484375 -8.265625 C 0.816406 -8.242188 1.296875 -8.234375 1.921875 -8.234375 L 3.171875 -8.234375 C 3.316406 -8.242188 3.484375 -8.25 3.671875 -8.25 C 4.460938 -8.25 5.070312 -8.082031 5.5 -7.75 C 5.925781 -7.414062 6.140625 -6.972656 6.140625 -6.421875 C 6.140625 -5.972656 5.992188 -5.566406 5.703125 -5.203125 C 5.421875 -4.847656 4.972656 -4.578125 4.359375 -4.390625 Z M 3.390625 -8.03125 C 3.140625 -8.03125 2.953125 -8 2.828125 -7.9375 C 2.710938 -7.882812 2.628906 -7.789062 2.578125 -7.65625 C 2.535156 -7.519531 2.515625 -7.3125 2.515625 -7.03125 L 2.515625 -4.390625 L 3.296875 -4.390625 C 3.941406 -4.390625 4.390625 -4.5625 4.640625 -4.90625 C 4.890625 -5.25 5.015625 -5.710938 5.015625 -6.296875 C 5.015625 -6.878906 4.882812 -7.3125 4.625 -7.59375 C 4.375 -7.882812 3.960938 -8.03125 3.390625 -8.03125 Z M 3.390625 -0.265625 C 4.847656 -0.265625 5.578125 -0.945312 5.578125 -2.3125 C 5.578125 -2.925781 5.410156 -3.390625 5.078125 -3.703125 C 4.753906 -4.023438 4.226562 -4.1875 3.5 -4.1875 L 2.515625 -4.1875 L 2.515625 -1.234375 C 2.515625 -0.953125 2.535156 -0.742188 2.578125 -0.609375 C 2.628906 -0.484375 2.710938 -0.394531 2.828125 -0.34375 C 2.953125 -0.289062 3.140625 -0.265625 3.390625 -0.265625 Z M 3.390625 -0.265625 "/></g></g><g style="fill:#ffffff;fill-opacity:1;"><g transform="translate(100.904759, 71.908333)"><path style="stroke:none" d="M 3.46875 -8.03125 C 3.1875 -8.007812 2.976562 -7.972656 2.84375 -7.921875 C 2.71875 -7.878906 2.628906 -7.789062 2.578125 -7.65625 C 2.535156 -7.53125 2.515625 -7.320312 2.515625 -7.03125 L 2.515625 -1.234375 C 2.515625 -0.941406 2.535156 -0.726562 2.578125 -0.59375 C 2.628906 -0.457031 2.71875 -0.363281 2.84375 -0.3125 C 2.976562 -0.269531 3.1875 -0.242188 3.46875 -0.234375 L 3.46875 0 C 3.101562 -0.0195312 2.609375 -0.03125 1.984375 -0.03125 C 1.316406 -0.03125 0.816406 -0.0195312 0.484375 0 L 0.484375 -0.234375 C 0.765625 -0.242188 0.96875 -0.269531 1.09375 -0.3125 C 1.226562 -0.363281 1.316406 -0.457031 1.359375 -0.59375 C 1.410156 -0.726562 1.4375 -0.941406 1.4375 -1.234375 L 1.4375 -7.03125 C 1.4375 -7.320312 1.410156 -7.53125 1.359375 -7.65625 C 1.316406 -7.789062 1.226562 -7.878906 1.09375 -7.921875 C 0.96875 -7.972656 0.765625 -8.007812 0.484375 -8.03125 L 0.484375 -8.265625 C 0.816406 -8.242188 1.316406 -8.234375 1.984375 -8.234375 C 2.609375 -8.234375 3.101562 -8.242188 3.46875 -8.265625 Z M 3.46875 -8.03125 "/></g></g><g style="fill:#ffffff;fill-opacity:1;"><g transform="translate(105.735595, 71.908333)"><path style="stroke:none" d="M 6.90625 -8.265625 C 6.851562 -7.710938 6.828125 -7.210938 6.828125 -6.765625 C 6.828125 -6.378906 6.835938 -6.0625 6.859375 -5.8125 L 6.59375 -5.8125 C 6.53125 -6.414062 6.453125 -6.863281 6.359375 -7.15625 C 6.265625 -7.445312 6.097656 -7.660156 5.859375 -7.796875 C 5.628906 -7.929688 5.273438 -8 4.796875 -8 L 4.171875 -8 L 4.171875 -1.359375 C 4.171875 -1.023438 4.203125 -0.785156 4.265625 -0.640625 C 4.328125 -0.492188 4.4375 -0.390625 4.59375 -0.328125 C 4.75 -0.273438 5 -0.242188 5.34375 -0.234375 L 5.34375 0 C 4.9375 -0.0195312 4.363281 -0.03125 3.625 -0.03125 C 2.851562 -0.03125 2.28125 -0.0195312 1.90625 0 L 1.90625 -0.234375 C 2.25 -0.242188 2.5 -0.273438 2.65625 -0.328125 C 2.8125 -0.390625 2.921875 -0.492188 2.984375 -0.640625 C 3.046875 -0.785156 3.078125 -1.023438 3.078125 -1.359375 L 3.078125 -8 L 2.453125 -8 C 1.972656 -8 1.613281 -7.929688 1.375 -7.796875 C 1.144531 -7.660156 0.984375 -7.445312 0.890625 -7.15625 C 0.796875 -6.863281 0.71875 -6.414062 0.65625 -5.8125 L 0.390625 -5.8125 C 0.410156 -6.0625 0.421875 -6.378906 0.421875 -6.765625 C 0.421875 -7.210938 0.394531 -7.710938 0.34375 -8.265625 C 0.988281 -8.242188 2.082031 -8.234375 3.625 -8.234375 C 5.164062 -8.234375 6.257812 -8.242188 6.90625 -8.265625 Z M 6.90625 -8.265625 "/></g></g><g style="fill:#ffffff;fill-opacity:1;"><g transform="translate(113.856495, 71.908333)"><path style="stroke:none" d="M 6.46875 -1.5 C 6.46875 -1.050781 6.492188 -0.550781 6.546875 0 C 6.015625 -0.0195312 5.125 -0.03125 3.875 -0.03125 C 2.382812 -0.03125 1.253906 -0.0195312 0.484375 0 L 0.484375 -0.234375 C 0.765625 -0.242188 0.96875 -0.269531 1.09375 -0.3125 C 1.226562 -0.363281 1.316406 -0.457031 1.359375 -0.59375 C 1.410156 -0.726562 1.4375 -0.941406 1.4375 -1.234375 L 1.4375 -7.03125 C 1.4375 -7.320312 1.410156 -7.53125 1.359375 -7.65625 C 1.316406 -7.789062 1.226562 -7.878906 1.09375 -7.921875 C 0.96875 -7.972656 0.765625 -8.007812 0.484375 -8.03125 L 0.484375 -8.265625 C 1.253906 -8.242188 2.382812 -8.234375 3.875 -8.234375 C 5.019531 -8.234375 5.832031 -8.242188 6.3125 -8.265625 C 6.257812 -7.753906 6.234375 -7.296875 6.234375 -6.890625 C 6.234375 -6.585938 6.242188 -6.34375 6.265625 -6.15625 L 6 -6.15625 C 5.945312 -6.664062 5.875 -7.039062 5.78125 -7.28125 C 5.695312 -7.53125 5.550781 -7.710938 5.34375 -7.828125 C 5.144531 -7.941406 4.84375 -8 4.4375 -8 L 3.46875 -8 C 3.1875 -8 2.976562 -7.972656 2.84375 -7.921875 C 2.71875 -7.878906 2.628906 -7.789062 2.578125 -7.65625 C 2.535156 -7.53125 2.515625 -7.320312 2.515625 -7.03125 L 2.515625 -4.265625 L 3.296875 -4.265625 C 3.566406 -4.265625 3.773438 -4.328125 3.921875 -4.453125 C 4.066406 -4.585938 4.164062 -4.742188 4.21875 -4.921875 C 4.269531 -5.097656 4.3125 -5.316406 4.34375 -5.578125 L 4.375 -5.8125 L 4.640625 -5.8125 C 4.617188 -5.488281 4.609375 -5.125 4.609375 -4.71875 L 4.609375 -4.15625 C 4.609375 -3.757812 4.632812 -3.207031 4.6875 -2.5 L 4.40625 -2.5 C 4.40625 -2.550781 4.382812 -2.738281 4.34375 -3.0625 C 4.300781 -3.382812 4.191406 -3.625 4.015625 -3.78125 C 3.847656 -3.945312 3.609375 -4.03125 3.296875 -4.03125 L 2.515625 -4.03125 L 2.515625 -1.234375 C 2.515625 -0.941406 2.535156 -0.726562 2.578125 -0.59375 C 2.628906 -0.457031 2.71875 -0.367188 2.84375 -0.328125 C 2.976562 -0.285156 3.1875 -0.265625 3.46875 -0.265625 L 4.3125 -0.265625 C 4.800781 -0.265625 5.171875 -0.328125 5.421875 -0.453125 C 5.671875 -0.585938 5.851562 -0.796875 5.96875 -1.078125 C 6.09375 -1.359375 6.179688 -1.773438 6.234375 -2.328125 L 6.5 -2.328125 C 6.476562 -2.117188 6.46875 -1.84375 6.46875 -1.5 Z M 6.46875 -1.5 "/></g></g><g style="fill:#ffffff;fill-opacity:1;"><g transform="translate(121.837393, 71.908333)"><path style="stroke:none" d="M 7.8125 -8.03125 C 7.539062 -8.007812 7.335938 -7.96875 7.203125 -7.90625 C 7.078125 -7.84375 6.988281 -7.734375 6.9375 -7.578125 C 6.894531 -7.429688 6.875 -7.207031 6.875 -6.90625 L 6.875 0.0625 L 6.609375 0.0625 L 1.703125 -7.515625 L 1.703125 -1.359375 C 1.703125 -1.054688 1.726562 -0.828125 1.78125 -0.671875 C 1.832031 -0.523438 1.929688 -0.414062 2.078125 -0.34375 C 2.222656 -0.28125 2.453125 -0.242188 2.765625 -0.234375 L 2.765625 0 C 2.484375 -0.0195312 2.085938 -0.03125 1.578125 -0.03125 C 1.109375 -0.03125 0.742188 -0.0195312 0.484375 0 L 0.484375 -0.234375 C 0.765625 -0.242188 0.96875 -0.28125 1.09375 -0.34375 C 1.226562 -0.414062 1.316406 -0.523438 1.359375 -0.671875 C 1.410156 -0.828125 1.4375 -1.054688 1.4375 -1.359375 L 1.4375 -7.03125 C 1.4375 -7.320312 1.410156 -7.53125 1.359375 -7.65625 C 1.316406 -7.789062 1.226562 -7.878906 1.09375 -7.921875 C 0.96875 -7.972656 0.765625 -8.007812 0.484375 -8.03125 L 0.484375 -8.265625 C 0.742188 -8.242188 1.109375 -8.234375 1.578125 -8.234375 C 1.921875 -8.234375 2.222656 -8.242188 2.484375 -8.265625 L 6.609375 -1.921875 L 6.609375 -6.90625 C 6.609375 -7.207031 6.582031 -7.429688 6.53125 -7.578125 C 6.476562 -7.734375 6.378906 -7.84375 6.234375 -7.90625 C 6.085938 -7.96875 5.859375 -8.007812 5.546875 -8.03125 L 5.546875 -8.265625 C 5.828125 -8.242188 6.222656 -8.234375 6.734375 -8.234375 C 7.203125 -8.234375 7.5625 -8.242188 7.8125 -8.265625 Z M 7.8125 -8.03125 "/></g></g><g style="fill:#ffffff;fill-opacity:1;"><g transform="translate(130.949979, 71.908333)"><path style="stroke:none" d="M 4.328125 -8.421875 C 4.796875 -8.421875 5.191406 -8.351562 5.515625 -8.21875 C 5.847656 -8.09375 6.171875 -7.910156 6.484375 -7.671875 C 6.566406 -7.597656 6.640625 -7.5625 6.703125 -7.5625 C 6.859375 -7.5625 6.957031 -7.796875 7 -8.265625 L 7.265625 -8.265625 C 7.234375 -7.753906 7.21875 -6.859375 7.21875 -5.578125 L 6.953125 -5.578125 C 6.867188 -6.085938 6.789062 -6.453125 6.71875 -6.671875 C 6.65625 -6.890625 6.539062 -7.101562 6.375 -7.3125 C 6.132812 -7.613281 5.832031 -7.835938 5.46875 -7.984375 C 5.113281 -8.140625 4.726562 -8.21875 4.3125 -8.21875 C 3.800781 -8.21875 3.359375 -8.050781 2.984375 -7.71875 C 2.609375 -7.382812 2.3125 -6.90625 2.09375 -6.28125 C 1.882812 -5.664062 1.78125 -4.941406 1.78125 -4.109375 C 1.78125 -3.265625 1.894531 -2.535156 2.125 -1.921875 C 2.351562 -1.316406 2.664062 -0.851562 3.0625 -0.53125 C 3.46875 -0.21875 3.921875 -0.0625 4.421875 -0.0625 C 4.804688 -0.0625 5.179688 -0.132812 5.546875 -0.28125 C 5.921875 -0.4375 6.210938 -0.660156 6.421875 -0.953125 C 6.578125 -1.171875 6.6875 -1.40625 6.75 -1.65625 C 6.820312 -1.90625 6.890625 -2.285156 6.953125 -2.796875 L 7.21875 -2.796875 C 7.21875 -1.460938 7.234375 -0.53125 7.265625 0 L 7 0 C 6.976562 -0.25 6.945312 -0.425781 6.90625 -0.53125 C 6.863281 -0.632812 6.800781 -0.6875 6.71875 -0.6875 C 6.65625 -0.6875 6.578125 -0.65625 6.484375 -0.59375 C 6.128906 -0.34375 5.789062 -0.15625 5.46875 -0.03125 C 5.15625 0.09375 4.769531 0.15625 4.3125 0.15625 C 3.570312 0.15625 2.925781 -0.0078125 2.375 -0.34375 C 1.820312 -0.675781 1.390625 -1.160156 1.078125 -1.796875 C 0.773438 -2.429688 0.625 -3.1875 0.625 -4.0625 C 0.625 -4.914062 0.78125 -5.671875 1.09375 -6.328125 C 1.40625 -6.992188 1.84375 -7.507812 2.40625 -7.875 C 2.96875 -8.238281 3.609375 -8.421875 4.328125 -8.421875 Z M 4.328125 -8.421875 "/></g></g><g style="fill:#ffffff;fill-opacity:1;"><g transform="translate(139.852562, 71.908333)"><path style="stroke:none" d="M 4.328125 -8.421875 C 5.066406 -8.421875 5.710938 -8.253906 6.265625 -7.921875 C 6.828125 -7.585938 7.257812 -7.101562 7.5625 -6.46875 C 7.875 -5.832031 8.03125 -5.078125 8.03125 -4.203125 C 8.03125 -3.347656 7.867188 -2.585938 7.546875 -1.921875 C 7.234375 -1.265625 6.796875 -0.753906 6.234375 -0.390625 C 5.671875 -0.0234375 5.03125 0.15625 4.3125 0.15625 C 3.570312 0.15625 2.925781 -0.0078125 2.375 -0.34375 C 1.820312 -0.675781 1.390625 -1.160156 1.078125 -1.796875 C 0.773438 -2.429688 0.625 -3.1875 0.625 -4.0625 C 0.625 -4.914062 0.78125 -5.671875 1.09375 -6.328125 C 1.40625 -6.992188 1.84375 -7.507812 2.40625 -7.875 C 2.96875 -8.238281 3.609375 -8.421875 4.328125 -8.421875 Z M 4.28125 -8.21875 C 3.78125 -8.21875 3.34375 -8.039062 2.96875 -7.6875 C 2.59375 -7.34375 2.300781 -6.859375 2.09375 -6.234375 C 1.882812 -5.617188 1.78125 -4.910156 1.78125 -4.109375 C 1.78125 -3.296875 1.894531 -2.582031 2.125 -1.96875 C 2.351562 -1.351562 2.660156 -0.878906 3.046875 -0.546875 C 3.441406 -0.210938 3.878906 -0.046875 4.359375 -0.046875 C 4.859375 -0.046875 5.296875 -0.21875 5.671875 -0.5625 C 6.054688 -0.90625 6.347656 -1.390625 6.546875 -2.015625 C 6.753906 -2.640625 6.859375 -3.351562 6.859375 -4.15625 C 6.859375 -4.96875 6.742188 -5.679688 6.515625 -6.296875 C 6.285156 -6.910156 5.972656 -7.382812 5.578125 -7.71875 C 5.191406 -8.050781 4.757812 -8.21875 4.28125 -8.21875 Z M 4.28125 -8.21875 "/></g></g><g style="fill:#ffffff;fill-opacity:1;"><g transform="translate(149.37349, 71.908333)"><path style="stroke:none" d="M 7.640625 -8.03125 C 7.367188 -8.007812 7.164062 -7.96875 7.03125 -7.90625 C 6.90625 -7.84375 6.816406 -7.734375 6.765625 -7.578125 C 6.722656 -7.429688 6.703125 -7.207031 6.703125 -6.90625 L 6.703125 -3.390625 C 6.703125 -2.835938 6.664062 -2.359375 6.59375 -1.953125 C 6.519531 -1.554688 6.394531 -1.210938 6.21875 -0.921875 C 6.019531 -0.585938 5.734375 -0.320312 5.359375 -0.125 C 4.984375 0.0625 4.554688 0.15625 4.078125 0.15625 C 3.222656 0.15625 2.570312 -0.0507812 2.125 -0.46875 C 1.78125 -0.789062 1.550781 -1.148438 1.4375 -1.546875 C 1.320312 -1.953125 1.265625 -2.554688 1.265625 -3.359375 L 1.265625 -7.03125 C 1.265625 -7.320312 1.238281 -7.53125 1.1875 -7.65625 C 1.144531 -7.789062 1.054688 -7.878906 0.921875 -7.921875 C 0.796875 -7.972656 0.59375 -8.007812 0.3125 -8.03125 L 0.3125 -8.265625 C 0.644531 -8.242188 1.144531 -8.234375 1.8125 -8.234375 C 2.4375 -8.234375 2.929688 -8.242188 3.296875 -8.265625 L 3.296875 -8.03125 C 3.015625 -8.007812 2.804688 -7.972656 2.671875 -7.921875 C 2.546875 -7.878906 2.457031 -7.789062 2.40625 -7.65625 C 2.363281 -7.53125 2.34375 -7.320312 2.34375 -7.03125 L 2.34375 -3.15625 C 2.34375 -2.539062 2.382812 -2.023438 2.46875 -1.609375 C 2.5625 -1.191406 2.738281 -0.859375 3 -0.609375 C 3.269531 -0.367188 3.664062 -0.25 4.1875 -0.25 C 5.007812 -0.25 5.585938 -0.507812 5.921875 -1.03125 C 6.265625 -1.5625 6.4375 -2.304688 6.4375 -3.265625 L 6.4375 -6.90625 C 6.4375 -7.332031 6.359375 -7.617188 6.203125 -7.765625 C 6.046875 -7.921875 5.769531 -8.007812 5.375 -8.03125 L 5.375 -8.265625 C 5.65625 -8.242188 6.050781 -8.234375 6.5625 -8.234375 C 7.03125 -8.234375 7.390625 -8.242188 7.640625 -8.265625 Z M 7.640625 -8.03125 "/></g></g><g style="fill:#ffffff;fill-opacity:1;"><g transform="translate(158.206071, 71.908333)"><path style="stroke:none" d="M 7.703125 -0.578125 C 7.523438 -0.316406 7.34375 -0.128906 7.15625 -0.015625 C 6.976562 0.0976562 6.742188 0.15625 6.453125 0.15625 C 6.128906 0.15625 5.863281 0.0664062 5.65625 -0.109375 C 5.457031 -0.296875 5.304688 -0.625 5.203125 -1.09375 L 4.953125 -2.265625 C 4.859375 -2.671875 4.769531 -2.984375 4.6875 -3.203125 C 4.601562 -3.421875 4.476562 -3.59375 4.3125 -3.71875 C 4.15625 -3.851562 3.925781 -3.921875 3.625 -3.921875 L 2.515625 -3.921875 L 2.515625 -1.234375 C 2.515625 -0.941406 2.535156 -0.726562 2.578125 -0.59375 C 2.628906 -0.457031 2.71875 -0.363281 2.84375 -0.3125 C 2.976562 -0.269531 3.1875 -0.242188 3.46875 -0.234375 L 3.46875 0 C 3.101562 -0.0195312 2.609375 -0.03125 1.984375 -0.03125 C 1.316406 -0.03125 0.816406 -0.0195312 0.484375 0 L 0.484375 -0.234375 C 0.765625 -0.242188 0.96875 -0.269531 1.09375 -0.3125 C 1.226562 -0.363281 1.316406 -0.457031 1.359375 -0.59375 C 1.410156 -0.726562 1.4375 -0.941406 1.4375 -1.234375 L 1.4375 -7.03125 C 1.4375 -7.320312 1.410156 -7.53125 1.359375 -7.65625 C 1.316406 -7.789062 1.226562 -7.878906 1.09375 -7.921875 C 0.96875 -7.972656 0.765625 -8.007812 0.484375 -8.03125 L 0.484375 -8.265625 C 0.816406 -8.242188 1.296875 -8.234375 1.921875 -8.234375 L 3.171875 -8.234375 C 3.316406 -8.242188 3.484375 -8.25 3.671875 -8.25 C 4.578125 -8.25 5.269531 -8.0625 5.75 -7.6875 C 6.238281 -7.3125 6.484375 -6.820312 6.484375 -6.21875 C 6.484375 -5.914062 6.410156 -5.609375 6.265625 -5.296875 C 6.128906 -4.992188 5.890625 -4.71875 5.546875 -4.46875 C 5.210938 -4.226562 4.769531 -4.066406 4.21875 -3.984375 L 4.359375 -3.953125 C 4.878906 -3.867188 5.253906 -3.710938 5.484375 -3.484375 C 5.710938 -3.265625 5.882812 -2.910156 6 -2.421875 L 6.296875 -1.21875 C 6.367188 -0.863281 6.445312 -0.613281 6.53125 -0.46875 C 6.625 -0.332031 6.742188 -0.265625 6.890625 -0.265625 C 7.015625 -0.265625 7.125 -0.300781 7.21875 -0.375 C 7.3125 -0.445312 7.414062 -0.5625 7.53125 -0.71875 Z M 3.390625 -8.03125 C 3.140625 -8.03125 2.953125 -8 2.828125 -7.9375 C 2.710938 -7.882812 2.628906 -7.789062 2.578125 -7.65625 C 2.535156 -7.519531 2.515625 -7.3125 2.515625 -7.03125 L 2.515625 -4.15625 L 3.296875 -4.15625 C 4.066406 -4.15625 4.597656 -4.328125 4.890625 -4.671875 C 5.179688 -5.015625 5.328125 -5.488281 5.328125 -6.09375 C 5.328125 -6.726562 5.171875 -7.207031 4.859375 -7.53125 C 4.554688 -7.863281 4.066406 -8.03125 3.390625 -8.03125 Z M 3.390625 -8.03125 "/></g></g><g style="fill:#ffffff;fill-opacity:1;"><g transform="translate(166.641977, 71.908333)"><path style="stroke:none" d="M 6.90625 -8.265625 C 6.851562 -7.710938 6.828125 -7.210938 6.828125 -6.765625 C 6.828125 -6.378906 6.835938 -6.0625 6.859375 -5.8125 L 6.59375 -5.8125 C 6.53125 -6.414062 6.453125 -6.863281 6.359375 -7.15625 C 6.265625 -7.445312 6.097656 -7.660156 5.859375 -7.796875 C 5.628906 -7.929688 5.273438 -8 4.796875 -8 L 4.171875 -8 L 4.171875 -1.359375 C 4.171875 -1.023438 4.203125 -0.785156 4.265625 -0.640625 C 4.328125 -0.492188 4.4375 -0.390625 4.59375 -0.328125 C 4.75 -0.273438 5 -0.242188 5.34375 -0.234375 L 5.34375 0 C 4.9375 -0.0195312 4.363281 -0.03125 3.625 -0.03125 C 2.851562 -0.03125 2.28125 -0.0195312 1.90625 0 L 1.90625 -0.234375 C 2.25 -0.242188 2.5 -0.273438 2.65625 -0.328125 C 2.8125 -0.390625 2.921875 -0.492188 2.984375 -0.640625 C 3.046875 -0.785156 3.078125 -1.023438 3.078125 -1.359375 L 3.078125 -8 L 2.453125 -8 C 1.972656 -8 1.613281 -7.929688 1.375 -7.796875 C 1.144531 -7.660156 0.984375 -7.445312 0.890625 -7.15625 C 0.796875 -6.863281 0.71875 -6.414062 0.65625 -5.8125 L 0.390625 -5.8125 C 0.410156 -6.0625 0.421875 -6.378906 0.421875 -6.765625 C 0.421875 -7.210938 0.394531 -7.710938 0.34375 -8.265625 C 0.988281 -8.242188 2.082031 -8.234375 3.625 -8.234375 C 5.164062 -8.234375 6.257812 -8.242188 6.90625 -8.265625 Z M 6.90625 -8.265625 "/></g></g></g></svg>